<?xml version="1.0" standalone="no"?>
<!DOCTYPE svg PUBLIC "-//W3C//DTD SVG 20010904//EN"
 "http://www.w3.org/TR/2001/REC-SVG-20010904/DTD/svg10.dtd">
<svg version="1.0" xmlns="http://www.w3.org/2000/svg"
 width="423.000000pt" height="423.000000pt" viewBox="0 0 423.000000 423.000000"
 preserveAspectRatio="xMidYMid meet">
<metadata>
Created by potrace 1.11, written by Peter Selinger 2001-2013
</metadata>
<g transform="translate(0.000000,423.000000) scale(0.100000,-0.100000)"
fill="#000000" stroke="none">
<path d="M1715 3620 c-66 -4 -205 -24 -310 -44 -104 -20 -217 -36 -250 -36
-166 -1 -309 -45 -387 -120 -35 -34 -48 -55 -53 -85 -12 -76 -36 -127 -68
-144 -85 -46 -130 -117 -129 -205 0 -28 16 -116 36 -196 51 -210 96 -500 96
-621 0 -22 14 -108 30 -192 45 -228 114 -396 214 -522 184 -232 227 -270 501
-447 123 -80 167 -119 253 -227 86 -108 173 -165 242 -158 25 2 71 14 102 27
l56 22 54 -26 c29 -15 78 -42 108 -61 43 -28 64 -35 105 -35 84 0 134 32 305
195 85 81 171 159 190 173 19 15 62 49 95 77 33 28 87 70 120 94 85 62 116 92
210 207 153 184 239 353 282 553 21 98 26 156 33 376 8 266 12 295 56 424 37
108 47 178 29 204 -15 21 -15 21 -16 -3 -1 -25 -1 -25 -11 3 -12 34 -3 61 17
53 10 -3 15 1 15 13 0 24 -47 64 -111 97 -37 18 -56 37 -78 75 -26 46 -34 70
-59 172 -4 16 -11 28 -16 27 -5 -1 -13 4 -17 12 -6 9 -9 3 -9 -17 0 -36 -14
-62 -24 -46 -10 16 -26 14 -26 -4 0 -8 5 -15 10 -15 15 0 12 -15 -8 -40 l-19
-23 -20 23 c-12 12 -25 20 -30 17 -19 -12 -32 10 -36 61 -4 45 -2 52 13 52 12
0 17 6 16 18 -2 9 1 20 6 23 4 3 -4 12 -19 19 -16 8 -38 23 -50 33 -16 14 -52
23 -135 33 -62 7 -158 25 -213 38 -165 41 -355 84 -440 101 -44 8 -111 24
-150 34 -76 22 -266 25 -510 11z m155 -255 c25 -1 70 -3 100 -4 55 -3 55 -3
20 -13 -19 -5 -57 -8 -85 -4 -36 4 -45 2 -32 -5 32 -18 19 -31 -25 -25 -37 5
-39 4 -13 -4 16 -5 46 -7 65 -4 26 4 46 0 73 -15 44 -24 99 -27 117 -6 10 11
9 18 -3 30 -9 8 -20 15 -26 15 -6 0 -11 4 -11 9 0 10 103 6 120 -4 6 -3 8 -11
5 -16 -4 -5 3 -9 14 -9 12 0 21 5 21 11 0 7 11 9 33 5 89 -18 238 -38 288 -39
38 -1 63 -8 76 -19 24 -22 37 -23 30 -4 -5 12 -1 12 30 0 59 -25 71 -36 70
-63 -2 -21 3 -26 23 -26 14 -1 48 -12 75 -26 46 -23 50 -29 53 -65 2 -21 10
-46 18 -55 8 -9 11 -18 8 -21 -3 -3 -1 -9 5 -13 6 -3 11 1 11 9 0 16 18 31 26
23 3 -3 1 -15 -6 -26 -8 -17 -8 -21 3 -21 14 0 31 -27 43 -70 4 -14 17 -37 29
-52 18 -22 24 -24 29 -12 3 8 2 12 -4 9 -6 -3 -10 2 -10 11 0 33 45 -22 48
-58 3 -37 23 -88 34 -88 4 0 14 -13 22 -29 11 -20 25 -31 51 -35 34 -7 50 -26
20 -26 -8 0 -15 5 -15 10 0 6 -9 10 -19 10 -11 0 -23 -4 -26 -10 -3 -6 4 -10
17 -10 14 0 33 -7 44 -16 18 -15 18 -15 -4 -10 -13 2 -21 2 -18 -1 9 -9 49
-32 69 -39 10 -4 17 -17 17 -30 0 -15 6 -24 15 -24 17 0 20 -21 5 -36 -6 -6
-7 -22 -1 -39 4 -17 4 -61 0 -100 -4 -38 -11 -101 -14 -140 -6 -71 -24 -213
-31 -250 -2 -11 -11 -56 -19 -100 -8 -43 -20 -84 -25 -89 -6 -6 -10 -19 -10
-30 0 -11 -6 -27 -13 -35 -7 -9 -20 -34 -29 -56 -16 -45 -104 -184 -126 -201
-8 -6 -14 -23 -14 -38 0 -15 -7 -30 -15 -33 -8 -3 -12 -11 -9 -18 13 -35 -100
-145 -191 -187 -35 -16 -66 -35 -69 -43 -3 -7 -22 -21 -42 -29 -20 -9 -56 -28
-80 -42 -62 -36 -124 -41 -197 -14 -81 29 -181 51 -230 50 -61 0 -126 7 -161
18 -20 6 -37 6 -49 0 -25 -14 -202 -21 -217 -9 -130 104 -165 129 -229 166
-90 51 -153 98 -248 185 -46 41 -89 78 -96 82 -21 12 -85 106 -85 126 0 9 -13
23 -30 30 -16 8 -30 20 -30 28 0 8 -4 14 -10 14 -5 0 -10 13 -10 29 0 16 -6
31 -14 34 -9 4 -17 26 -21 54 -3 26 -10 57 -15 68 -19 45 -33 145 -50 368 -9
126 -28 260 -40 292 -4 11 -6 36 -4 55 2 19 4 43 4 52 2 20 17 33 48 41 17 4
26 -1 37 -23 21 -41 19 -60 -7 -60 -19 0 -20 -2 -8 -10 13 -8 13 -10 0 -10
-11 0 -11 -3 -2 -12 7 -7 12 -22 12 -34 0 -17 4 -21 20 -17 18 5 19 3 11 -19
-6 -15 -6 -41 -1 -64 6 -26 5 -41 -2 -45 -16 -10 9 -39 33 -39 19 0 26 -14 12
-23 -5 -2 -3 -2 4 -1 7 2 15 -1 18 -6 7 -11 -31 -23 -46 -14 -7 4 -10 -1 -7
-12 3 -18 8 -20 55 -23 14 -1 20 -6 17 -14 -2 -7 7 -19 21 -27 31 -17 32 -25
3 -35 -21 -7 -21 -8 7 -12 52 -7 63 -14 38 -24 -15 -5 -23 -17 -23 -31 1 -23
1 -23 16 -3 14 19 15 19 39 -7 31 -33 31 -38 3 -39 -18 -1 -16 -3 10 -10 22
-7 32 -16 32 -29 0 -14 7 -20 24 -20 13 0 27 6 29 13 3 7 6 5 6 -5 1 -9 -6
-21 -15 -26 -13 -7 -14 -11 -3 -17 7 -5 14 -4 17 3 8 26 32 10 43 -30 12 -46
29 -64 41 -45 6 9 8 9 8 0 0 -7 -9 -18 -20 -25 -23 -15 -24 -17 -9 -55 10 -26
12 -27 19 -8 6 15 9 8 9 -25 0 -33 -3 -40 -9 -25 -7 18 -8 19 -15 3 -4 -10
-15 -18 -24 -19 -9 0 -1 -5 16 -10 21 -6 38 -21 48 -39 9 -17 21 -30 28 -30
29 -1 60 -51 65 -106 2 -30 8 -54 13 -54 5 0 4 -9 -3 -20 -15 -24 -4 -37 17
-20 8 7 25 10 37 7 16 -4 32 2 52 19 15 14 27 26 25 28 -2 2 -14 9 -26 15 -26
13 -31 51 -8 51 8 0 15 -4 15 -10 0 -5 5 -10 10 -10 6 0 10 11 10 25 0 14 -4
25 -10 25 -5 0 -10 9 -10 20 0 12 5 17 14 14 8 -3 17 -1 21 5 3 7 -2 11 -14
11 -17 0 -21 6 -21 30 0 17 -4 30 -10 30 -12 0 -30 65 -30 108 0 20 -8 39 -20
49 -24 21 -25 36 -5 53 8 7 15 16 15 21 0 5 -7 9 -15 9 -8 0 -15 9 -15 20 0
11 -4 20 -10 20 -5 0 -10 9 -10 20 0 10 -9 24 -19 30 -11 5 -25 26 -32 45 -7
19 -17 35 -22 35 -5 0 -5 6 1 13 8 9 -6 29 -54 76 -35 36 -64 71 -64 78 0 8
-6 16 -14 19 -8 3 -20 19 -26 35 -10 23 -19 29 -44 30 -28 0 -29 1 -8 9 12 5
22 14 22 19 0 13 -34 24 -38 12 -5 -14 -32 -2 -32 15 0 8 5 14 10 14 19 0 10
31 -15 54 -28 26 -31 36 -12 36 6 0 13 10 14 23 1 12 4 34 5 49 2 15 9 33 16
40 7 7 12 38 12 75 0 65 3 70 59 116 12 9 25 17 31 17 5 0 15 18 21 40 7 22
17 40 22 40 5 0 4 7 -3 16 -11 13 -10 16 8 21 22 5 31 33 12 33 -16 0 -11 16
14 43 29 31 41 74 26 92 -9 11 -5 13 16 10 15 -1 34 4 42 11 7 8 28 14 45 14
122 2 128 4 147 40 10 19 16 38 13 42 -2 5 3 8 11 8 8 0 22 8 32 18 28 27 67
41 99 35 17 -4 50 -7 75 -8z m1133 -32 c-7 -2 -19 -2 -25 0 -7 3 -2 5 12 5 14
0 19 -2 13 -5z m-1663 -41 c0 -5 -9 -17 -20 -27 -22 -20 -26 -45 -7 -45 6 -1
2 -9 -10 -19 -13 -11 -23 -23 -23 -28 0 -8 -18 -20 -63 -41 -5 -3 -3 6 3 18 7
13 10 39 7 60 -5 43 6 68 36 80 29 11 77 12 77 2z m723 -9 c-13 -2 -33 -2 -45
0 -13 2 -3 4 22 4 25 0 35 -2 23 -4z m-543 -38 c0 -8 -4 -15 -10 -15 -5 0 -7
7 -4 15 4 8 8 15 10 15 2 0 4 -7 4 -15z m-642 -64 c10 -6 9 -10 -7 -14 -21 -5
-36 5 -24 17 8 8 15 7 31 -3z m2378 -57 c15 -10 24 -26 24 -42 0 -15 16 -43
40 -71 123 -141 136 -152 124 -105 -4 17 -2 29 7 35 19 12 66 11 74 -1 3 -5
-1 -10 -10 -10 -9 0 -13 -5 -10 -10 4 -6 12 -8 18 -4 7 3 5 0 -4 -8 -9 -7 -14
-19 -12 -25 3 -7 -2 -13 -10 -13 -10 0 -13 -7 -10 -20 3 -11 3 -20 -1 -20 -3
0 -36 20 -74 44 -69 44 -122 97 -122 121 0 8 -12 29 -28 47 -36 44 -53 78 -48
103 3 11 5 25 7 30 1 6 4 0 6 -13 2 -12 15 -30 29 -38z m-2416 28 c0 -4 -7
-18 -16 -30 -14 -20 -17 -21 -31 -7 -17 17 -17 17 12 33 24 14 35 15 35 4z
m-64 -107 c-3 -8 -10 -15 -15 -15 -5 0 -4 11 2 25 12 25 23 16 13 -10z m337 3
c-4 -19 -3 -20 6 -8 14 19 14 5 1 -21 -6 -10 -17 -19 -25 -19 -8 0 -14 -6 -12
-12 3 -19 -39 -22 -47 -3 -3 9 -2 13 4 10 6 -3 10 -1 10 5 0 17 43 69 57 69 6
1 9 -8 6 -21z m-101 -121 c-7 -8 -10 -17 -7 -21 3 -3 0 -2 -7 3 -8 8 -8 14 2
26 7 8 15 13 18 10 3 -2 0 -11 -6 -18z m2597 -8 c-32 -24 -54 -24 -56 1 -1 11
2 20 8 20 5 0 9 -4 9 -10 0 -5 8 -10 18 -10 15 0 15 2 2 11 -13 9 -12 10 3 5
9 -3 17 -1 17 5 0 6 5 7 11 3 8 -4 4 -13 -12 -25z m-518 -52 c-8 -8 -11 -3
-11 19 1 25 2 27 11 11 8 -14 8 -22 0 -30z m-2105 -43 c-9 -9 -20 -14 -23 -10
-4 3 2 13 13 20 25 18 31 12 10 -10z m-16 -84 c0 -5 -2 -10 -4 -10 -3 0 -8 5
-11 10 -3 6 -1 10 4 10 6 0 11 -4 11 -10z m551 -1163 c-13 -13 -15 11 -4 40 7
16 8 15 11 -6 2 -13 -1 -28 -7 -34z m499 -726 c0 -17 -15 -19 -28 -5 -11 12
-9 14 8 14 11 0 20 -4 20 -9z m150 -36 c0 -21 47 -30 86 -16 36 13 54 8 54
-15 0 -9 -11 -14 -33 -14 -23 0 -38 -7 -51 -25 -20 -27 -48 -31 -91 -15 -24 9
-26 14 -20 43 9 44 55 79 55 42z m-110 -59 c0 -8 -7 -16 -15 -20 -10 -4 -15 1
-15 14 0 11 7 20 15 20 8 0 15 -6 15 -14z"/>
<path d="M1698 3303 c7 -3 16 -2 19 1 4 3 -2 6 -13 5 -11 0 -14 -3 -6 -6z"/>
<path d="M2128 3285 c2 -14 9 -28 15 -32 7 -4 8 1 3 13 -6 15 -5 17 5 7 16
-16 29 -17 29 -2 0 5 -4 7 -10 4 -5 -3 -10 3 -10 14 0 14 -6 21 -19 21 -14 0
-17 -6 -13 -25z"/>
<path d="M2540 3255 c0 -8 4 -15 9 -15 5 0 11 7 15 15 3 9 0 15 -9 15 -8 0
-15 -7 -15 -15z"/>
<path d="M1580 3216 c0 -8 5 -18 10 -21 6 -3 10 3 10 14 0 12 -4 21 -10 21 -5
0 -10 -6 -10 -14z"/>
<path d="M1648 2983 c6 -2 18 -2 25 0 6 3 1 5 -13 5 -14 0 -19 -2 -12 -5z"/>
<path d="M1680 2880 c0 -5 13 -10 29 -10 17 0 33 5 36 10 4 6 -8 10 -29 10
-20 0 -36 -4 -36 -10z"/>
<path d="M1658 2808 c-27 -9 -36 -27 -21 -42 4 -4 6 -27 4 -51 -1 -27 2 -45 8
-45 6 0 11 -11 11 -25 0 -30 26 -84 40 -86 14 -2 30 -6 33 -9 1 -1 15 -4 30
-6 16 -1 40 -10 54 -20 36 -23 77 -33 95 -23 11 6 18 4 21 -5 6 -15 67 -28 67
-14 0 15 34 8 55 -12 27 -25 86 -44 82 -27 -1 7 6 11 15 11 9 -1 19 5 22 12 3
8 1 14 -4 14 -20 0 -9 29 13 33 19 4 18 4 -5 6 -28 1 -40 21 -13 21 8 0 22 11
31 25 16 24 16 27 -2 46 -33 36 -53 43 -75 23 -10 -9 -19 -23 -19 -31 0 -19
-13 -16 -30 7 -8 11 -22 20 -32 20 -10 0 -18 4 -18 9 0 5 -24 12 -52 17 l-53
8 45 6 45 7 -45 2 c-77 3 -182 29 -202 51 -10 11 -15 20 -11 20 4 0 2 5 -4 11
-15 15 -35 -4 -51 -46 l-10 -30 -1 33 c-1 17 4 32 9 32 12 0 14 57 3 63 -5 2
-20 0 -35 -5z m42 -148 c0 -5 -4 -10 -10 -10 -5 0 -10 5 -10 10 0 6 5 10 10
10 6 0 10 -4 10 -10z m30 -60 c0 -5 -7 -10 -16 -10 -8 0 -12 5 -9 10 3 6 10
10 16 10 5 0 9 -4 9 -10z"/>
<path d="M3148 2603 c7 -3 16 -2 19 1 4 3 -2 6 -13 5 -11 0 -14 -3 -6 -6z"/>
<path d="M2160 2365 c0 -9 9 -15 21 -15 18 0 19 2 9 15 -7 8 -16 15 -21 15 -5
0 -9 -7 -9 -15z"/>
<path d="M2155 2191 l30 -9 -30 -2 c-16 -1 -39 -5 -50 -9 -18 -8 -16 -10 18
-27 20 -10 37 -24 37 -32 0 -26 22 -6 36 33 7 22 12 41 10 43 -2 1 -21 5 -42
7 -35 4 -36 4 -9 -4z"/>
<path d="M1737 2131 c-23 -39 -22 -61 3 -61 11 0 20 5 20 11 0 5 5 7 10 4 8
-5 7 -12 -1 -22 -10 -12 -10 -16 2 -24 36 -23 100 0 68 25 -20 16 -22 56 -3
78 16 17 15 18 -32 18 -44 0 -52 -3 -67 -29z"/>
<path d="M2020 2119 c0 -5 5 -7 10 -4 6 3 10 8 10 11 0 2 -4 4 -10 4 -5 0 -10
-5 -10 -11z"/>
<path d="M2070 2091 c-8 -10 -16 -24 -18 -32 -2 -8 -8 -15 -13 -17 -5 -2 -9
-11 -9 -20 0 -12 3 -13 12 -4 15 15 38 16 38 2 0 -5 -7 -10 -15 -10 -11 0 -12
-5 -6 -23 5 -13 7 -35 4 -49 -3 -15 1 -36 10 -48 8 -12 13 -29 10 -40 -4 -15
2 -18 36 -22 23 -2 41 0 41 4 0 5 7 8 15 8 8 0 15 5 15 10 0 6 -7 10 -15 10
-8 0 -15 7 -15 15 0 11 -11 15 -40 15 -36 0 -40 2 -40 26 0 26 1 26 25 10 13
-9 32 -16 41 -16 9 0 18 -9 21 -20 3 -11 9 -20 14 -20 5 0 9 9 9 20 0 11 5 20
10 20 6 0 10 9 10 20 0 22 -15 27 -23 8 -4 -10 -8 -9 -16 2 -15 21 -14 27 9
33 21 5 28 41 9 52 -7 5 -4 14 8 28 18 20 18 20 -6 14 -17 -4 -33 1 -53 19
-34 28 -47 29 -68 5z m77 -227 c-3 -3 -12 -4 -19 -1 -8 3 -5 6 6 6 11 1 17 -2
13 -5z"/>
<path d="M1275 1919 c-4 -11 -4 -23 -1 -26 3 -4 6 1 6 10 0 8 5 17 12 19 9 3
9 6 1 11 -7 4 -14 -1 -18 -14z"/>
<path d="M2210 1810 c0 -5 7 -10 15 -10 8 0 15 5 15 10 0 6 -7 10 -15 10 -8 0
-15 -4 -15 -10z"/>
<path d="M2300 1761 c0 -6 5 -13 10 -16 6 -3 10 1 10 9 0 9 -4 16 -10 16 -5 0
-10 -4 -10 -9z"/>
<path d="M1330 1750 c0 -5 7 -10 15 -10 8 0 15 5 15 10 0 6 -7 10 -15 10 -8 0
-15 -4 -15 -10z"/>
<path d="M2160 1751 c0 -11 39 -25 47 -18 3 3 2 10 -2 16 -8 13 -45 15 -45 2z"/>
<path d="M2420 1720 c0 -5 -8 -10 -17 -11 -11 0 -4 -7 17 -17 19 -9 40 -23 46
-31 9 -12 12 -9 16 12 3 17 -1 30 -14 41 -20 18 -48 21 -48 6z"/>
<path d="M1346 1671 c-4 -7 -5 -15 -2 -18 9 -9 19 4 14 18 -4 11 -6 11 -12 0z"/>
<path d="M2285 1670 c-4 -6 -3 -16 3 -22 6 -6 12 -6 17 2 4 6 3 16 -3 22 -6 6
-12 6 -17 -2z"/>
<path d="M2345 1650 c3 -5 8 -10 11 -10 2 0 4 5 4 10 0 6 -5 10 -11 10 -5 0
-7 -4 -4 -10z"/>
<path d="M1427 1634 c-3 -3 -1 -19 5 -36 6 -17 14 -26 20 -20 5 5 3 19 -5 35
-8 15 -17 24 -20 21z"/>
<path d="M1556 1492 c-12 -11 -5 -20 19 -24 16 -3 25 -1 25 7 0 13 -35 27 -44
17z"/>
<path d="M1492 1468 c6 -18 28 -21 28 -4 0 9 -7 16 -16 16 -9 0 -14 -5 -12
-12z"/>
<path d="M1542 1430 c0 -14 2 -19 5 -12 2 6 2 18 0 25 -3 6 -5 1 -5 -13z"/>
<path d="M2560 1407 c0 -6 -13 -18 -29 -25 -33 -14 -33 -43 0 -37 10 2 21 0
24 -6 4 -5 -5 -9 -20 -9 -15 0 -28 -7 -32 -17 -4 -10 -11 -21 -17 -25 -19 -13
5 -22 24 -10 11 7 28 12 37 12 16 -1 16 -2 -2 -12 -11 -6 -35 -26 -52 -44 -37
-39 -47 -41 -63 -16 -8 12 -10 12 -7 2 3 -9 -1 -24 -9 -35 -12 -17 -14 -17
-14 -2 0 13 -9 17 -40 17 -22 0 -40 5 -40 11 0 7 14 8 40 4 l40 -7 0 41 c0 49
-24 57 -33 11 -6 -25 -11 -30 -37 -30 -30 0 -42 21 -20 35 6 3 10 0 10 -7 0
-8 6 -6 18 5 16 17 16 19 -2 33 -22 16 -105 19 -153 5 -20 -6 -35 -6 -38 0 -4
5 -1 9 4 9 6 0 11 5 11 11 0 8 -4 8 -14 0 -14 -12 -66 -10 -190 9 -57 8 -77 7
-122 -9 -29 -9 -51 -15 -49 -11 2 3 0 12 -5 20 -8 12 -12 12 -22 2 -10 -10
-10 -14 0 -21 9 -5 4 -15 -18 -36 -34 -33 -39 -17 -9 30 30 48 32 54 19 70 -7
9 -25 13 -48 11 -41 -4 -55 -24 -23 -33 30 -8 26 -20 -11 -27 -17 -3 -28 -9
-25 -13 4 -3 2 -12 -4 -20 -9 -10 -7 -13 9 -13 12 0 24 -4 27 -10 3 -5 1 -10
-5 -10 -7 0 -10 -6 -7 -12 2 -7 11 -12 18 -11 8 2 30 -11 48 -28 24 -21 49
-33 84 -39 27 -4 52 -12 56 -18 3 -6 33 -10 66 -10 33 1 115 -2 183 -6 84 -6
122 -5 122 2 0 6 17 10 39 9 25 -2 37 1 34 9 -3 8 14 8 58 2 35 -4 65 -5 68 0
3 4 25 9 48 10 59 1 79 15 107 74 26 53 26 68 0 68 -17 0 -18 20 -1 43 11 16
15 15 47 -13 26 -22 30 -30 18 -30 -10 0 -18 -7 -18 -15 0 -11 11 -15 40 -15
42 0 51 14 28 39 -10 11 -10 14 0 18 6 3 12 13 12 24 0 18 -1 18 -35 2 -37
-18 -55 -13 -37 10 14 16 6 28 -14 20 -8 -3 -17 2 -20 11 -7 19 -54 22 -54 3z
m0 -177 c0 -5 -2 -10 -4 -10 -3 0 -8 5 -11 10 -3 6 -1 10 4 10 6 0 11 -4 11
-10z m-260 -46 c0 -8 -4 -12 -10 -9 -5 3 -10 10 -10 16 0 5 5 9 10 9 6 0 10
-7 10 -16z"/>
<path d="M2438 1343 c-10 -2 -18 -11 -18 -19 0 -17 17 -19 23 -1 3 9 7 9 20
-2 15 -12 17 -11 17 8 0 21 -8 23 -42 14z"/>
<path d="M1555 1330 c3 -5 8 -10 11 -10 2 0 4 5 4 10 0 6 -5 10 -11 10 -5 0
-7 -4 -4 -10z"/>
<path d="M2348 1143 c7 -3 16 -2 19 1 4 3 -2 6 -13 5 -11 0 -14 -3 -6 -6z"/>
<path d="M3230 3280 c0 -5 5 -10 11 -10 5 0 7 5 4 10 -3 6 -8 10 -11 10 -2 0
-4 -4 -4 -10z"/>
</g>
</svg>
